<svg width="46" height="46" viewBox="0 0 46 46" fill="none" xmlns="http://www.w3.org/2000/svg">
<rect width="46" height="46" rx="10" fill="white"/>
<path d="M23 22.9755C21.9 22.9755 21 22.6255 20.3 21.9255C19.6 21.2255 19.25 20.3255 19.25 19.2255C19.25 18.1255 19.6 17.2255 20.3 16.5255C21 15.8255 21.9 15.4755 23 15.4755C24.1 15.4755 25 15.8255 25.7 16.5255C26.4 17.2255 26.75 18.1255 26.75 19.2255C26.75 20.3255 26.4 21.2255 25.7 21.9255C25 22.6255 24.1 22.9755 23 22.9755ZM15 31.0005V28.6505C15 28.0172 15.1583 27.4755 15.475 27.0255C15.7917 26.5755 16.2 26.2338 16.7 26.0005C17.8167 25.5005 18.8875 25.1255 19.9125 24.8755C20.9375 24.6255 21.9667 24.5005 23 24.5005C24.0333 24.5005 25.0583 24.6297 26.075 24.888C27.0917 25.1463 28.1583 25.5172 29.275 26.0005C29.7917 26.2338 30.2083 26.5755 30.525 27.0255C30.8417 27.4755 31 28.0172 31 28.6505V31.0005H15Z" fill="#4461F2"/>
</svg>
