<svg width="16" height="16" viewBox="0 0 16 16" fill="none" xmlns="http://www.w3.org/2000/svg">
<path d="M8 7.97549C6.9 7.97549 6 7.62549 5.3 6.92549C4.6 6.22549 4.25 5.32549 4.25 4.22549C4.25 3.12549 4.6 2.22549 5.3 1.52549C6 0.825495 6.9 0.475494 8 0.475494C9.1 0.475494 10 0.825495 10.7 1.52549C11.4 2.22549 11.75 3.12549 11.75 4.22549C11.75 5.32549 11.4 6.22549 10.7 6.92549C10 7.62549 9.1 7.97549 8 7.97549ZM0 16.0005V13.6505C0 13.0172 0.158333 12.4755 0.475 12.0255C0.791666 11.5755 1.2 11.2338 1.7 11.0005C2.81667 10.5005 3.8875 10.1255 4.9125 9.87549C5.9375 9.62549 6.96667 9.50049 8 9.50049C9.03333 9.50049 10.0583 9.62966 11.075 9.88799C12.0917 10.1463 13.1583 10.5172 14.275 11.0005C14.7917 11.2338 15.2083 11.5755 15.525 12.0255C15.8417 12.4755 16 13.0172 16 13.6505V16.0005H0Z" fill="white"/>
</svg>
