<svg width="30" height="18" viewBox="0 0 30 18" fill="none" xmlns="http://www.w3.org/2000/svg">
<g clip-path="url(#clip0_239_763)">
<path fill-rule="evenodd" clip-rule="evenodd" d="M8.75 6.92308H6.25V4.15385C6.25 3.39231 5.6875 2.76923 5 2.76923C4.3125 2.76923 3.75 3.39231 3.75 4.15385V6.92308H1.25C0.5625 6.92308 0 7.54615 0 8.30769C0 9.06923 0.5625 9.69231 1.25 9.69231H3.75V12.4615C3.75 13.2231 4.3125 13.8462 5 13.8462C5.6875 13.8462 6.25 13.2231 6.25 12.4615V9.69231H8.75C9.4375 9.69231 10 9.06923 10 8.30769C10 7.54615 9.4375 6.92308 8.75 6.92308ZM22.5 8.30769C24.575 8.30769 26.2375 6.45231 26.2375 4.15385C26.2375 1.85538 24.575 0 22.5 0C22.1 0 21.7125 0.0692306 21.3625 0.193846C22.075 1.31538 22.4875 2.67231 22.4875 4.15385C22.4875 5.63539 22.0625 6.97846 21.3625 8.11385C21.7125 8.23846 22.1 8.30769 22.5 8.30769ZM16.25 8.30769C18.325 8.30769 19.9875 6.45231 19.9875 4.15385C19.9875 1.85538 18.325 0 16.25 0C14.175 0 12.5 1.85538 12.5 4.15385C12.5 6.45231 14.175 8.30769 16.25 8.30769ZM16.25 11.0769C13.75 11.0769 8.75 12.4615 8.75 15.2308V16.6154C8.75 17.3769 9.3125 18 10 18H22.5C23.1875 18 23.75 17.3769 23.75 16.6154V15.2308C23.75 12.4615 18.75 11.0769 16.25 11.0769ZM24.525 11.2985C25.5625 12.3092 26.25 13.5969 26.25 15.2308V17.3077C26.25 17.5431 26.225 17.7785 26.1875 18H29.375C29.725 18 30 17.6954 30 17.3077V15.2308C30 13.0985 27.0375 11.7831 24.525 11.2985Z" fill="white"/>
</g>
<defs>
<clipPath id="clip0_239_763">
<rect width="30" height="18" fill="white"/>
</clipPath>
</defs>
</svg>
