<svg width="49" height="43" viewBox="0 0 49 43" fill="none" xmlns="http://www.w3.org/2000/svg">
<rect x="12.7319" y="0.00012207" width="2.31496" height="42.0551" rx="1.15748" fill="white"/>
<rect x="8.48807" y="6.94464" width="2.31496" height="28.1654" rx="1.15748" fill="white"/>
<rect x="4.24364" y="14.2751" width="2.31496" height="13.5039" rx="1.15748" fill="white" fill-opacity="0.34"/>
<rect x="-0.000152588" y="14.2751" width="2.31496" height="13.5039" rx="1.15748" fill="white" fill-opacity="0.34"/>
<rect x="16.9763" y="4.2439" width="2.31496" height="33.5669" rx="1.15748" fill="white"/>
<rect x="21.2201" y="10.4179" width="2.31496" height="21.2205" rx="1.15748" fill="white"/>
<rect x="25.4645" y="6.94464" width="2.31496" height="28.1654" rx="1.15748" fill="white"/>
<rect x="29.7083" y="14.2751" width="2.31496" height="13.5039" rx="1.15748" fill="white"/>
<rect x="33.9528" y="6.94464" width="2.31496" height="28.1654" rx="1.15748" fill="white"/>
<rect x="38.1965" y="16.5906" width="2.31496" height="8.87402" rx="1.15748" fill="white"/>
<rect x="42.4403" y="10.4179" width="2.31496" height="21.2205" rx="1.15748" fill="white" fill-opacity="0.34"/>
<rect x="46.6848" y="14.2751" width="2.31496" height="13.5039" rx="1.15748" fill="white" fill-opacity="0.34"/>
</svg>
