<svg width="18" height="19" viewBox="0 0 18 19" fill="none" xmlns="http://www.w3.org/2000/svg">
<path d="M16.9764 8.37526L1.41163 0.12396C1.28964 0.059275 1.15262 0.033357 1.01705 0.0493272C0.881489 0.0652973 0.75317 0.122475 0.647545 0.213974C0.546674 0.303608 0.471384 0.421297 0.43014 0.553811C0.388895 0.686325 0.383331 0.82841 0.414073 0.964093L2.28892 8.29275H10.2906V9.79299H2.28892L0.385774 17.0991C0.356927 17.2125 0.353559 17.3314 0.375943 17.4463C0.398326 17.5612 0.445835 17.669 0.514649 17.7609C0.583464 17.8529 0.671664 17.9264 0.772158 17.9756C0.872652 18.0248 0.982635 18.0483 1.09326 18.0443C1.20402 18.0436 1.31307 18.0153 1.41163 17.9618L16.9764 9.71047C17.0923 9.64752 17.1896 9.55189 17.2575 9.4341C17.3254 9.3163 17.3613 9.18093 17.3613 9.04287C17.3613 8.90481 17.3254 8.76943 17.2575 8.65164C17.1896 8.53385 17.0923 8.43821 16.9764 8.37526Z" fill="#354657"/>
</svg>
