<svg width="24" height="22" viewBox="0 0 24 22" fill="none" xmlns="http://www.w3.org/2000/svg">
<path d="M0.00268555 3.5011C0.00268555 2.70545 0.318756 1.94239 0.881365 1.37978C1.44397 0.817169 2.20704 0.501099 3.00269 0.501099H21.0027C21.7983 0.501099 22.5614 0.817169 23.124 1.37978C23.6866 1.94239 24.0027 2.70545 24.0027 3.5011V18.5011C24.0027 19.2967 23.6866 20.0598 23.124 20.6224C22.5614 21.185 21.7983 21.5011 21.0027 21.5011H3.00269C2.20704 21.5011 1.44397 21.185 0.881365 20.6224C0.318756 20.0598 0.00268555 19.2967 0.00268555 18.5011V3.5011ZM1.50269 17.0011V18.5011C1.50269 18.8989 1.66072 19.2805 1.94203 19.5618C2.22333 19.8431 2.60486 20.0011 3.00269 20.0011H21.0027C21.4005 20.0011 21.782 19.8431 22.0633 19.5618C22.3447 19.2805 22.5027 18.8989 22.5027 18.5011V13.2511L16.8372 10.3306C16.6965 10.2601 16.5373 10.2357 16.3819 10.2607C16.2266 10.2858 16.0831 10.359 15.9717 10.4701L10.4067 16.0351L6.41669 13.3771C6.27263 13.2812 6.09983 13.238 5.92759 13.255C5.75536 13.2719 5.59429 13.3479 5.47169 13.4701L1.50269 17.0011ZM9.00269 7.2511C9.00269 6.65436 8.76563 6.08206 8.34368 5.66011C7.92172 5.23815 7.34942 5.0011 6.75269 5.0011C6.15595 5.0011 5.58365 5.23815 5.1617 5.66011C4.73974 6.08206 4.50269 6.65436 4.50269 7.2511C4.50269 7.84784 4.73974 8.42013 5.1617 8.84209C5.58365 9.26405 6.15595 9.5011 6.75269 9.5011C7.34942 9.5011 7.92172 9.26405 8.34368 8.84209C8.76563 8.42013 9.00269 7.84784 9.00269 7.2511Z" fill="white"/>
</svg>
