<svg width="52" height="49" viewBox="0 0 52 49" fill="none" xmlns="http://www.w3.org/2000/svg">
<g filter="url(#filter0_d_243_694)">
<rect x="4" width="44" height="40.6154" rx="6.94737" fill="url(#paint0_radial_243_694)"/>
<path d="M26.7235 31.4007L25.9907 30.9818L29.011 15.6436L34.0684 21.452L26.7235 31.4007Z" fill="white" fill-opacity="0.15"/>
<path d="M34.3706 8.88281C34.3671 17.2041 34.361 21.3952 34.3522 21.4561C34.3415 21.5444 34.3083 21.6285 34.2557 21.7003L25.5699 33.5093L16.8767 21.7003C16.8241 21.6285 16.7909 21.5444 16.7802 21.4561C16.7736 21.3822 16.7707 21.3379 16.7717 21.3229V8.88281L22.2675 15.0968L28.8991 15.0858L34.3706 8.88281ZM26.6019 31.2789L33.8246 21.4524L29.0115 15.8882L26.2355 30.86L26.6019 31.2789ZM24.5391 31.2789L24.9031 30.8649L22.1271 15.8918L17.3139 21.4561L24.5391 31.2789Z" fill="white"/>
<path d="M30.9633 21.6909L28.5256 24.4938L28.1348 22.7742L30.9633 21.6909Z" fill="white"/>
</g>
<defs>
<filter id="filter0_d_243_694" x="0" y="0" width="52" height="48.6152" filterUnits="userSpaceOnUse" color-interpolation-filters="sRGB">
<feFlood flood-opacity="0" result="BackgroundImageFix"/>
<feColorMatrix in="SourceAlpha" type="matrix" values="0 0 0 0 0 0 0 0 0 0 0 0 0 0 0 0 0 0 127 0" result="hardAlpha"/>
<feOffset dy="4"/>
<feGaussianBlur stdDeviation="2"/>
<feComposite in2="hardAlpha" operator="out"/>
<feColorMatrix type="matrix" values="0 0 0 0 0 0 0 0 0 0 0 0 0 0 0 0 0 0 0.25 0"/>
<feBlend mode="normal" in2="BackgroundImageFix" result="effect1_dropShadow_243_694"/>
<feBlend mode="normal" in="SourceGraphic" in2="effect1_dropShadow_243_694" result="shape"/>
</filter>
<radialGradient id="paint0_radial_243_694" cx="0" cy="0" r="1" gradientUnits="userSpaceOnUse" gradientTransform="translate(-23.641 -31.2426) rotate(50.085) scale(122.201 124.322)">
<stop stop-color="#546171"/>
<stop offset="0.0001" stop-color="#141C27"/>
<stop offset="1" stop-color="#586575"/>
</radialGradient>
</defs>
</svg>
